<?xml version="1.0" encoding="UTF-8"?>
<svg xmlns="http://www.w3.org/2000/svg" viewBox="0 0 400 860" fill="none">
  <rect width="400" height="860" fill="#111"/>
  <rect x="20" y="20" width="360" height="780" rx="28" fill="#0D1117" stroke="#4B5563" stroke-width="2"/>
  <rect x="160" y="28" width="80" height="6" rx="3" fill="#222"/>
  
  <rect x="20" y="20" width="360" height="780" rx="28" fill="#0D1117"/>
  <text x="36" y="72" fill="#F5F7FA" font-size="14" font-weight="600">LeylekTAG</text>
  <g transform="translate(68, 120)">
    <rect width="72" height="72" rx="18" fill="#0D1117" stroke="#4B5563"/>
    <g transform="translate(36, 42) scale(0.22)">
  <g transform="translate(0,0)">
    <path d="M -20 8 C -28 20, -30 40, -18 52 C -6 60, 14 62, 32 54" stroke="#00D4AA" stroke-width="5" fill="none" stroke-linecap="round"/>
    <path fill="#F5F7FA" d="M -8 -18 C -10 -24, -4 -28, 2 -24 L 28 -18 L 42 -14 L 38 -10 L 12 -14 C 4 -12, 0 -6, -2 4 C -4 16, -4 28, -2 38 L 0 48 L -2 58 C -3 62, 0 64, 4 64 C 8 64, 10 60, 9 56 L 7 48"/>
    <circle cx="18" cy="-16" r="2.5" fill="#00D4AA"/>
  </g></g>
    <text x="36" y="88" text-anchor="middle" fill="#F5F7FA" font-size="10">LeylekTAG</text>
  </g>
  <g transform="translate(168, 120)">
    <rect width="72" height="72" rx="18" fill="#222"/>
  </g>
  <g transform="translate(268, 120)">
    <rect width="72" height="72" rx="18" fill="#222"/>
  </g>
  <rect x="36" y="680" width="328" height="4" rx="2" fill="#4B5563" opacity="0.4"/>

  <text x="20" y="848" fill="#4B5563" font-family="system-ui,sans-serif" font-size="11">V7 — Android Home Screen · LC-2 icon @ squircle</text>
</svg>