<svg width="160" height="160" viewBox="0 0 160 160" fill="none" xmlns="http://www.w3.org/2000/svg">
  <defs>
    <linearGradient id="pinGradient" x1="35" y1="20" x2="130" y2="142" gradientUnits="userSpaceOnUse">
      <stop stop-color="#67E8F9"/>
      <stop offset="0.48" stop-color="#22D3EE"/>
      <stop offset="1" stop-color="#2563EB"/>
    </linearGradient>
    <linearGradient id="wingGradient" x1="47" y1="44" x2="126" y2="95" gradientUnits="userSpaceOnUse">
      <stop stop-color="#F8FDFF"/>
      <stop offset="1" stop-color="#BFF7FF"/>
    </linearGradient>
    <filter id="softGlow" x="-20" y="-20" width="200" height="200" filterUnits="userSpaceOnUse" color-interpolation-filters="sRGB">
      <feFlood flood-opacity="0" result="BackgroundImageFix"/>
      <feGaussianBlur in="SourceGraphic" stdDeviation="7" result="blur"/>
      <feColorMatrix in="blur" type="matrix" values="0 0 0 0 0.13 0 0 0 0 0.82 0 0 0 0 0.93 0 0 0 0.42 0"/>
      <feBlend mode="normal" in2="BackgroundImageFix" result="effect"/>
      <feBlend mode="normal" in="SourceGraphic" in2="effect" result="shape"/>
    </filter>
  </defs>
  <path d="M80 146C80 146 124 105.8 124 68C124 43.7 104.3 24 80 24C55.7 24 36 43.7 36 68C36 105.8 80 146 80 146Z" fill="url(#pinGradient)" filter="url(#softGlow)"/>
  <circle cx="80" cy="69" r="29" fill="#081827" fill-opacity="0.86"/>
  <path d="M51 72C61.5 54.8 82.4 45.9 111 45.2C101.5 53.6 89.6 61.2 75.4 68C90.5 65.3 103.3 66.3 114 71C97.8 78.4 80.6 80.6 62.5 77.8C58.3 77.1 54.5 75.2 51 72Z" fill="url(#wingGradient)"/>
  <path d="M74.5 67.8C83.2 60.6 91.7 56.7 100 56.1C91.9 63.9 83.9 69.4 76 72.6C70.2 75 64.6 75.6 59.1 74.4C64.7 72.8 69.8 70.6 74.5 67.8Z" fill="#0EA5E9" fill-opacity="0.46"/>
  <path d="M82 39C87.8 44.9 90.2 51.1 89.4 57.5C84.3 53.6 80.8 48.2 79 41.3L82 39Z" fill="#E8FCFF"/>
  <circle cx="80" cy="69" r="8.5" fill="#67E8F9"/>
</svg>
