<?xml version="1.0" encoding="UTF-8"?>
<svg xmlns="http://www.w3.org/2000/svg" viewBox="0 0 680 620" fill="none">
  <rect width="680" height="620" fill="#000000"/>
  <text x="20" y="30" fill="#FFFFFF" font-family="sans-serif" font-size="16">B5.5 Logo Small-Size Comparison Sheet</text>
  <g transform="translate(40, 60)">
        <rect x="0" y="0" width="36" height="56" fill="#111" stroke="#666666"/>
        <g transform="translate(10, 10) scale(0.03125)">
          <path fill="none" stroke="#FFFFFF" stroke-width="20" stroke-linecap="round" stroke-linejoin="round" d="M 132 188 C 96 248, 88 328, 118 388 C 152 438, 224 448, 296 424 C 360 402, 408 344, 416 272"/>
    <path fill="#FFFFFF" stroke="none" stroke-width="0" d="M 212 136 C 208 128, 216 122, 226 126 C 232 129, 238 133, 246 134 C 260 136, 276 140, 292 143 L 328 149 L 356 155 C 358 158, 354 161, 338 160 L 306 156 C 294 155, 286 159, 280 168 C 274 180, 268 196, 264 214 C 260 234, 258 254, 258 274 C 258 294, 260 312, 264 328 L 268 348 L 266 392 C 265 400, 269 406, 276 406 C 283 406, 287 400, 286 392 L 284 348 C 280 332, 276 316, 274 300 C 270 280, 268 260, 268 240 C 268 220, 272 202, 278 186 C 272 180, 264 174, 256 168 C 248 160, 240 152, 232 146 C 226 142, 218 138, 212 136 Z"/>
    <path fill="#FFFFFF" stroke="none" stroke-width="0" d="M 262 332 C 252 326, 244 332, 240 342 C 236 352, 242 362, 252 364 C 262 366, 268 358, 266 348 C 265 344, 264 338, 262 332 Z"/>
    <path fill="none" stroke="#FFFFFF" stroke-width="4" stroke-linecap="round" d="M 262 224 C 278 230, 296 246, 308 268 C 316 282, 318 298, 310 312"/>
    <circle fill="#FFFFFF" cx="292" cy="166" r="5.5"/>
        </g>
        <text x="10" y="48" fill="#666666" font-size="10">LS-01 @16px</text>
      </g><g transform="translate(40, 240)">
        <rect x="0" y="0" width="38" height="58" fill="#111" stroke="#666666"/>
        <g transform="translate(10, 10) scale(0.03515625)">
          <path fill="none" stroke="#FFFFFF" stroke-width="20" stroke-linecap="round" stroke-linejoin="round" d="M 132 188 C 96 248, 88 328, 118 388 C 152 438, 224 448, 296 424 C 360 402, 408 344, 416 272"/>
    <path fill="#FFFFFF" stroke="none" stroke-width="0" d="M 212 136 C 208 128, 216 122, 226 126 C 232 129, 238 133, 246 134 C 260 136, 276 140, 292 143 L 328 149 L 356 155 C 358 158, 354 161, 338 160 L 306 156 C 294 155, 286 159, 280 168 C 274 180, 268 196, 264 214 C 260 234, 258 254, 258 274 C 258 294, 260 312, 264 328 L 268 348 L 266 392 C 265 400, 269 406, 276 406 C 283 406, 287 400, 286 392 L 284 348 C 280 332, 276 316, 274 300 C 270 280, 268 260, 268 240 C 268 220, 272 202, 278 186 C 272 180, 264 174, 256 168 C 248 160, 240 152, 232 146 C 226 142, 218 138, 212 136 Z"/>
    <path fill="#FFFFFF" stroke="none" stroke-width="0" d="M 262 332 C 252 326, 244 332, 240 342 C 236 352, 242 362, 252 364 C 262 366, 268 358, 266 348 C 265 344, 264 338, 262 332 Z"/>
    <path fill="none" stroke="#FFFFFF" stroke-width="4" stroke-linecap="round" d="M 262 224 C 278 230, 296 246, 308 268 C 316 282, 318 298, 310 312"/>
    <circle fill="#FFFFFF" cx="292" cy="166" r="5.5"/>
        </g>
        <text x="10" y="50" fill="#666666" font-size="10">LS-01 @18px</text>
      </g><g transform="translate(40, 420)">
        <rect x="0" y="0" width="40" height="60" fill="#111" stroke="#666666"/>
        <g transform="translate(10, 10) scale(0.0390625)">
          <path fill="none" stroke="#FFFFFF" stroke-width="20" stroke-linecap="round" stroke-linejoin="round" d="M 132 188 C 96 248, 88 328, 118 388 C 152 438, 224 448, 296 424 C 360 402, 408 344, 416 272"/>
    <path fill="#FFFFFF" stroke="none" stroke-width="0" d="M 212 136 C 208 128, 216 122, 226 126 C 232 129, 238 133, 246 134 C 260 136, 276 140, 292 143 L 328 149 L 356 155 C 358 158, 354 161, 338 160 L 306 156 C 294 155, 286 159, 280 168 C 274 180, 268 196, 264 214 C 260 234, 258 254, 258 274 C 258 294, 260 312, 264 328 L 268 348 L 266 392 C 265 400, 269 406, 276 406 C 283 406, 287 400, 286 392 L 284 348 C 280 332, 276 316, 274 300 C 270 280, 268 260, 268 240 C 268 220, 272 202, 278 186 C 272 180, 264 174, 256 168 C 248 160, 240 152, 232 146 C 226 142, 218 138, 212 136 Z"/>
    <path fill="#FFFFFF" stroke="none" stroke-width="0" d="M 262 332 C 252 326, 244 332, 240 342 C 236 352, 242 362, 252 364 C 262 366, 268 358, 266 348 C 265 344, 264 338, 262 332 Z"/>
    <path fill="none" stroke="#FFFFFF" stroke-width="4" stroke-linecap="round" d="M 262 224 C 278 230, 296 246, 308 268 C 316 282, 318 298, 310 312"/>
    <circle fill="#FFFFFF" cx="292" cy="166" r="5.5"/>
        </g>
        <text x="10" y="52" fill="#666666" font-size="10">LS-01 @20px</text>
      </g><g transform="translate(240, 60)">
        <rect x="0" y="0" width="36" height="56" fill="#111" stroke="#666666"/>
        <g transform="translate(10, 10) scale(0.03125)">
          <path fill="none" stroke="#FFFFFF" stroke-width="20" stroke-linecap="round" stroke-linejoin="round" d="M 132 188 C 96 248, 88 328, 118 388 C 152 438, 224 448, 296 424 C 360 402, 408 344, 416 272"/>
    <path fill="#FFFFFF" stroke="none" stroke-width="0" d="M 212 136 C 208 128, 216 122, 226 126 C 232 129, 238 133, 246 134 C 260 136, 276 140, 292 143 L 328 149 L 356 155 C 358 158, 354 161, 338 160 L 306 156 C 294 155, 286 159, 280 168 C 274 180, 268 196, 264 214 C 260 234, 258 254, 258 274 C 258 294, 260 312, 264 328 L 268 348 L 266 392 C 265 400, 269 406, 276 406 C 283 406, 287 400, 286 392 L 284 348 C 280 332, 276 316, 274 300 C 270 280, 268 260, 268 240 C 268 220, 272 202, 278 186 C 272 180, 264 174, 256 168 C 248 160, 240 152, 232 146 C 226 142, 218 138, 212 136 Z"/>
    <path fill="#FFFFFF" stroke="none" stroke-width="0" d="M 262 332 C 252 326, 244 332, 240 342 C 236 352, 242 362, 252 364 C 262 366, 268 358, 266 348 C 265 344, 264 338, 262 332 Z"/>
    <path fill="none" stroke="#FFFFFF" stroke-width="4" stroke-linecap="round" d="M 262 224 C 278 230, 296 246, 308 268 C 316 282, 318 298, 310 312"/>
    <circle fill="#FFFFFF" cx="292" cy="166" r="5.5"/>
        </g>
        <text x="10" y="48" fill="#666666" font-size="10">LS-21 @16px</text>
      </g><g transform="translate(240, 240)">
        <rect x="0" y="0" width="38" height="58" fill="#111" stroke="#666666"/>
        <g transform="translate(10, 10) scale(0.03515625)">
          <path fill="none" stroke="#FFFFFF" stroke-width="20" stroke-linecap="round" stroke-linejoin="round" d="M 132 188 C 96 248, 88 328, 118 388 C 152 438, 224 448, 296 424 C 360 402, 408 344, 416 272"/>
    <path fill="#FFFFFF" stroke="none" stroke-width="0" d="M 212 136 C 208 128, 216 122, 226 126 C 232 129, 238 133, 246 134 C 260 136, 276 140, 292 143 L 328 149 L 356 155 C 358 158, 354 161, 338 160 L 306 156 C 294 155, 286 159, 280 168 C 274 180, 268 196, 264 214 C 260 234, 258 254, 258 274 C 258 294, 260 312, 264 328 L 268 348 L 266 392 C 265 400, 269 406, 276 406 C 283 406, 287 400, 286 392 L 284 348 C 280 332, 276 316, 274 300 C 270 280, 268 260, 268 240 C 268 220, 272 202, 278 186 C 272 180, 264 174, 256 168 C 248 160, 240 152, 232 146 C 226 142, 218 138, 212 136 Z"/>
    <path fill="#FFFFFF" stroke="none" stroke-width="0" d="M 262 332 C 252 326, 244 332, 240 342 C 236 352, 242 362, 252 364 C 262 366, 268 358, 266 348 C 265 344, 264 338, 262 332 Z"/>
    <path fill="none" stroke="#FFFFFF" stroke-width="4" stroke-linecap="round" d="M 262 224 C 278 230, 296 246, 308 268 C 316 282, 318 298, 310 312"/>
    <circle fill="#FFFFFF" cx="292" cy="166" r="5.5"/>
        </g>
        <text x="10" y="50" fill="#666666" font-size="10">LS-21 @18px</text>
      </g><g transform="translate(240, 420)">
        <rect x="0" y="0" width="40" height="60" fill="#111" stroke="#666666"/>
        <g transform="translate(10, 10) scale(0.0390625)">
          <path fill="none" stroke="#FFFFFF" stroke-width="20" stroke-linecap="round" stroke-linejoin="round" d="M 132 188 C 96 248, 88 328, 118 388 C 152 438, 224 448, 296 424 C 360 402, 408 344, 416 272"/>
    <path fill="#FFFFFF" stroke="none" stroke-width="0" d="M 212 136 C 208 128, 216 122, 226 126 C 232 129, 238 133, 246 134 C 260 136, 276 140, 292 143 L 328 149 L 356 155 C 358 158, 354 161, 338 160 L 306 156 C 294 155, 286 159, 280 168 C 274 180, 268 196, 264 214 C 260 234, 258 254, 258 274 C 258 294, 260 312, 264 328 L 268 348 L 266 392 C 265 400, 269 406, 276 406 C 283 406, 287 400, 286 392 L 284 348 C 280 332, 276 316, 274 300 C 270 280, 268 260, 268 240 C 268 220, 272 202, 278 186 C 272 180, 264 174, 256 168 C 248 160, 240 152, 232 146 C 226 142, 218 138, 212 136 Z"/>
    <path fill="#FFFFFF" stroke="none" stroke-width="0" d="M 262 332 C 252 326, 244 332, 240 342 C 236 352, 242 362, 252 364 C 262 366, 268 358, 266 348 C 265 344, 264 338, 262 332 Z"/>
    <path fill="none" stroke="#FFFFFF" stroke-width="4" stroke-linecap="round" d="M 262 224 C 278 230, 296 246, 308 268 C 316 282, 318 298, 310 312"/>
    <circle fill="#FFFFFF" cx="292" cy="166" r="5.5"/>
        </g>
        <text x="10" y="52" fill="#666666" font-size="10">LS-21 @20px</text>
      </g><g transform="translate(440, 60)">
        <rect x="0" y="0" width="36" height="56" fill="#111" stroke="#666666"/>
        <g transform="translate(10, 10) scale(0.03125)">
          <path fill="none" stroke="#FFFFFF" stroke-width="20" stroke-linecap="round" stroke-linejoin="round" d="M 132 188 C 96 248, 88 328, 118 388 C 152 438, 224 448, 296 424 C 360 402, 408 344, 416 272"/>
    <path fill="#FFFFFF" stroke="none" stroke-width="0" d="M 212 136 C 208 128, 216 122, 226 126 C 232 129, 238 133, 246 134 C 260 136, 276 140, 292 143 L 328 149 L 356 155 C 358 158, 354 161, 338 160 L 306 156 C 294 155, 286 159, 280 168 C 274 180, 268 196, 264 214 C 260 234, 258 254, 258 274 C 258 294, 260 312, 264 328 L 268 348 L 266 392 C 265 400, 269 406, 276 406 C 283 406, 287 400, 286 392 L 284 348 C 280 332, 276 316, 274 300 C 270 280, 268 260, 268 240 C 268 220, 272 202, 278 186 C 272 180, 264 174, 256 168 C 248 160, 240 152, 232 146 C 226 142, 218 138, 212 136 Z"/>
    <path fill="#FFFFFF" stroke="none" stroke-width="0" d="M 262 332 C 252 326, 244 332, 240 342 C 236 352, 242 362, 252 364 C 262 366, 268 358, 266 348 C 265 344, 264 338, 262 332 Z"/>
    <path fill="none" stroke="#FFFFFF" stroke-width="4" stroke-linecap="round" d="M 262 224 C 278 230, 296 246, 308 268 C 316 282, 318 298, 310 312"/>
    <circle fill="#FFFFFF" cx="292" cy="166" r="5.5"/>
        </g>
        <text x="10" y="48" fill="#666666" font-size="10">LS-30 @16px</text>
      </g><g transform="translate(440, 240)">
        <rect x="0" y="0" width="38" height="58" fill="#111" stroke="#666666"/>
        <g transform="translate(10, 10) scale(0.03515625)">
          <path fill="none" stroke="#FFFFFF" stroke-width="20" stroke-linecap="round" stroke-linejoin="round" d="M 132 188 C 96 248, 88 328, 118 388 C 152 438, 224 448, 296 424 C 360 402, 408 344, 416 272"/>
    <path fill="#FFFFFF" stroke="none" stroke-width="0" d="M 212 136 C 208 128, 216 122, 226 126 C 232 129, 238 133, 246 134 C 260 136, 276 140, 292 143 L 328 149 L 356 155 C 358 158, 354 161, 338 160 L 306 156 C 294 155, 286 159, 280 168 C 274 180, 268 196, 264 214 C 260 234, 258 254, 258 274 C 258 294, 260 312, 264 328 L 268 348 L 266 392 C 265 400, 269 406, 276 406 C 283 406, 287 400, 286 392 L 284 348 C 280 332, 276 316, 274 300 C 270 280, 268 260, 268 240 C 268 220, 272 202, 278 186 C 272 180, 264 174, 256 168 C 248 160, 240 152, 232 146 C 226 142, 218 138, 212 136 Z"/>
    <path fill="#FFFFFF" stroke="none" stroke-width="0" d="M 262 332 C 252 326, 244 332, 240 342 C 236 352, 242 362, 252 364 C 262 366, 268 358, 266 348 C 265 344, 264 338, 262 332 Z"/>
    <path fill="none" stroke="#FFFFFF" stroke-width="4" stroke-linecap="round" d="M 262 224 C 278 230, 296 246, 308 268 C 316 282, 318 298, 310 312"/>
    <circle fill="#FFFFFF" cx="292" cy="166" r="5.5"/>
        </g>
        <text x="10" y="50" fill="#666666" font-size="10">LS-30 @18px</text>
      </g><g transform="translate(440, 420)">
        <rect x="0" y="0" width="40" height="60" fill="#111" stroke="#666666"/>
        <g transform="translate(10, 10) scale(0.0390625)">
          <path fill="none" stroke="#FFFFFF" stroke-width="20" stroke-linecap="round" stroke-linejoin="round" d="M 132 188 C 96 248, 88 328, 118 388 C 152 438, 224 448, 296 424 C 360 402, 408 344, 416 272"/>
    <path fill="#FFFFFF" stroke="none" stroke-width="0" d="M 212 136 C 208 128, 216 122, 226 126 C 232 129, 238 133, 246 134 C 260 136, 276 140, 292 143 L 328 149 L 356 155 C 358 158, 354 161, 338 160 L 306 156 C 294 155, 286 159, 280 168 C 274 180, 268 196, 264 214 C 260 234, 258 254, 258 274 C 258 294, 260 312, 264 328 L 268 348 L 266 392 C 265 400, 269 406, 276 406 C 283 406, 287 400, 286 392 L 284 348 C 280 332, 276 316, 274 300 C 270 280, 268 260, 268 240 C 268 220, 272 202, 278 186 C 272 180, 264 174, 256 168 C 248 160, 240 152, 232 146 C 226 142, 218 138, 212 136 Z"/>
    <path fill="#FFFFFF" stroke="none" stroke-width="0" d="M 262 332 C 252 326, 244 332, 240 342 C 236 352, 242 362, 252 364 C 262 366, 268 358, 266 348 C 265 344, 264 338, 262 332 Z"/>
    <path fill="none" stroke="#FFFFFF" stroke-width="4" stroke-linecap="round" d="M 262 224 C 278 230, 296 246, 308 268 C 316 282, 318 298, 310 312"/>
    <circle fill="#FFFFFF" cx="292" cy="166" r="5.5"/>
        </g>
        <text x="10" y="52" fill="#666666" font-size="10">LS-30 @20px</text>
      </g>
</svg>